<?xml version="1.0" encoding="utf-8"?>
<!-- Generator: Adobe Illustrator 23.0.1, SVG Export Plug-In . SVG Version: 6.00 Build 0)  -->
<svg version="1.1" id="Layer_1" xmlns="http://www.w3.org/2000/svg" xmlns:xlink="http://www.w3.org/1999/xlink" x="0px" y="0px"
	 viewBox="0 0 2340 1560" style="enable-background:new 0 0 2340 1560;" xml:space="preserve">
<style type="text/css">
	.st0{fill:#253365;}
	.st1{font-family:'Viato-Bold';}
	.st2{font-size:308.2095px;}
	.st3{fill:#2376B8;}
	.st4{fill:#FFFFFF;}
	.st5{fill:#FFFFFF;stroke:#253365;stroke-width:16;stroke-miterlimit:10;}
	.st6{fill:#243365;}
	.st7{fill:url(#SVGID_1_);}
</style>
<text transform="matrix(1 0 0 1 785.3003 897.9696)"><tspan x="0" y="0" class="st0 st1 st2">kube</tspan><tspan x="590.83" y="0" class="st3 st1 st2">lens</tspan></text>
<circle class="st4" cx="458.99" cy="797.41" r="199.62"/>
<g>
	<path class="st5" d="M300.82,919.19c-2.33,1.26-4.65,2.46-6.95,3.6c32.97,43.23,82.52,73.16,139.09,80.2
		c-0.16-2.52-0.27-5.09-0.35-7.69C379.09,988.23,332.26,959.95,300.82,919.19z"/>
	<path class="st5" d="M485.37,995.29c-0.07,2.58-0.19,5.12-0.34,7.62c56.4-7.19,105.78-37.16,138.63-80.35
		c-2.15-1.07-4.32-2.2-6.49-3.37C585.72,959.95,538.89,988.23,485.37,995.29z"/>
	<path class="st5" d="M432.61,599.53c0.07-2.6,0.19-5.17,0.35-7.69c-56.57,7.03-106.12,36.96-139.09,80.19
		c2.3,1.14,4.62,2.34,6.95,3.6C332.26,634.87,379.09,606.6,432.61,599.53z"/>
	<path class="st5" d="M259.37,797.41c0-26.95,5.35-52.65,15.04-76.11c-2.28-1.4-4.5-2.83-6.67-4.27
		c-10.45,24.73-16.23,51.89-16.23,80.38c0,28.49,5.78,55.65,16.23,80.38c2.16-1.44,4.39-2.86,6.67-4.27
		C264.73,850.07,259.37,824.37,259.37,797.41z"/>
	<path class="st5" d="M658.61,797.41c0,26.95-5.35,52.65-15.04,76.11c2.11,1.3,4.17,2.61,6.17,3.94
		c10.36-24.64,16.1-51.69,16.1-80.05c0-28.36-5.74-55.41-16.1-80.05c-2.01,1.33-4.07,2.64-6.17,3.94
		C653.25,744.76,658.61,770.46,658.61,797.41z"/>
	<path class="st5" d="M617.16,675.64c2.18-1.18,4.34-2.3,6.49-3.37c-32.85-43.19-82.23-73.16-138.63-80.35
		c0.16,2.5,0.27,5.04,0.34,7.62C538.89,606.6,585.72,634.87,617.16,675.64z"/>
	<path class="st0" d="M458.99,527.99c3.58,0,6.99,2.11,10.11,5.91c9.61-14.68,16.37-46.01,16.37-57.05
		c0-14.62-11.85-26.48-26.48-26.48s-26.48,11.85-26.48,26.48c0,11.04,6.76,42.37,16.37,57.05C452,530.1,455.41,527.99,458.99,527.99
		z"/>
	<path class="st6" d="M442.79,567.84c0.39-1.39,2.36-1.39,2.69,0.02c0.85,3.6,1.84,10.34,2.28,22.68c3.62-0.19,7.26-0.29,10.92-0.29
		c8.92,0,17.72,0.57,26.35,1.67c-1.64-26.33-7.75-48.04-15.92-58.02c-3.12,4.76-6.53,7.78-10.11,7.78s-6.99-3.02-10.11-7.78
		c-8.17,9.97-14.27,31.65-15.92,57.94c2.2-0.27,4.42-0.5,6.64-0.71C440.1,582.03,441.09,573.93,442.79,567.84z"/>
	<path class="st6" d="M447.76,590.54c0.08,2.32,0.14,4.84,0.18,7.57c3.66-0.2,7.34-0.31,11.05-0.31c8.94,0,17.74,0.6,26.38,1.74
		c-0.07-2.58-0.19-5.12-0.34-7.62c-8.63-1.1-17.42-1.67-26.35-1.67C455.01,590.25,451.37,590.35,447.76,590.54z"/>
	<path class="st6" d="M439.31,598.76c0.07-2.6,0.17-5.15,0.3-7.63c-2.22,0.2-4.44,0.43-6.64,0.71c-0.16,2.52-0.27,5.09-0.35,7.69
		C434.83,599.24,437.06,598.98,439.31,598.76z"/>
	<path class="st6" d="M458.99,541.67c3.58,0,6.99-3.02,10.11-7.78c-3.12-3.8-6.53-5.91-10.11-5.91s-6.99,2.11-10.11,5.91
		C451.99,538.66,455.41,541.67,458.99,541.67z"/>
	<path class="st6" d="M458.99,1066.84c-3.58,0-6.99-2.11-10.11-5.91c-9.61,14.68-16.37,46.01-16.37,57.05
		c0,14.62,11.85,26.48,26.48,26.48s26.48-11.85,26.48-26.48c0-11.04-6.76-42.37-16.37-57.05
		C465.98,1064.73,462.57,1066.84,458.99,1066.84z"/>
	<path class="st6" d="M475.46,1025.42c-0.39,1.39-2.36,1.39-2.69-0.02c-0.81-3.45-1.76-9.78-2.22-21.17
		c-3.93,0.22-7.88,0.35-11.87,0.35c-8.71,0-17.29-0.55-25.71-1.59c1.65,26.3,7.75,47.98,15.92,57.94c3.12-4.76,6.53-7.78,10.11-7.78
		s6.99,3.02,10.11,7.78c8.18-9.98,14.28-31.69,15.92-58.02c-2.14,0.27-4.3,0.5-6.46,0.71
		C478.04,1012.11,477.06,1019.66,475.46,1025.42z"/>
	<path class="st6" d="M470.54,1004.23c-0.09-2.3-0.16-4.8-0.21-7.53c-3.75,0.21-7.53,0.33-11.34,0.33c-8.94,0-17.74-0.6-26.38-1.74
		c0.07,2.6,0.19,5.17,0.35,7.69c8.43,1.05,17.01,1.59,25.71,1.59C462.66,1004.58,466.61,1004.45,470.54,1004.23z"/>
	<path class="st6" d="M478.9,996.05c-0.08,2.59-0.19,5.12-0.34,7.58c2.16-0.21,4.32-0.44,6.46-0.71c0.16-2.5,0.27-5.04,0.34-7.62
		C483.22,995.58,481.06,995.83,478.9,996.05z"/>
	<path class="st6" d="M458.99,1053.15c-3.58,0-6.99,3.02-10.11,7.78c3.12,3.8,6.53,5.91,10.11,5.91s6.99-2.11,10.11-5.91
		C465.98,1056.17,462.57,1053.15,458.99,1053.15z"/>
	<path class="st4" d="M445.48,567.85c-0.33-1.41-2.31-1.41-2.69-0.02c-1.7,6.09-2.69,14.2-3.18,23.3c2.7-0.25,5.42-0.46,8.15-0.6
		C447.33,578.19,446.33,571.46,445.48,567.85z"/>
	<path class="st4" d="M447.76,590.54c-2.73,0.14-5.45,0.35-8.15,0.6c-0.14,2.48-0.23,5.02-0.3,7.63c2.86-0.28,5.74-0.5,8.63-0.66
		C447.9,595.37,447.84,592.85,447.76,590.54z"/>
	<path class="st4" d="M472.76,1025.4c0.33,1.41,2.31,1.41,2.69,0.02c1.6-5.75,2.58-13.3,3.1-21.79c-2.66,0.25-5.33,0.46-8.01,0.61
		C471,1015.62,471.95,1021.95,472.76,1025.4z"/>
	<path class="st4" d="M470.54,1004.23c2.69-0.15,5.36-0.36,8.01-0.61c0.15-2.45,0.26-4.99,0.34-7.58c-2.84,0.28-5.69,0.5-8.56,0.66
		C470.38,999.43,470.45,1001.93,470.54,1004.23z"/>
	<path class="st6" d="M225.66,662.7c1.79-3.1,5.32-5,10.18-5.8c-7.91-15.66-31.66-37.18-41.22-42.7
		c-12.66-7.31-28.86-2.97-36.17,9.69c-7.31,12.66-2.97,28.86,9.69,36.17c9.56,5.52,40.07,15.33,57.59,14.35
		C223.99,669.81,223.87,665.8,225.66,662.7z"/>
	<path class="st6" d="M252.07,696.66c-1.01-1.03-0.02-2.74,1.36-2.32c3.52,1.06,9.79,3.54,20.57,9.26
		c5.68-11.14,12.35-21.69,19.87-31.55c-23.56-11.69-45.34-17.22-58.04-15.14c2.57,5.08,3.47,9.54,1.68,12.64
		c-1.79,3.1-6.11,4.55-11.79,4.87c4.54,12.02,20.17,28.08,42.02,42.62c0.87-2.05,1.78-4.09,2.71-6.11
		C262.91,705.99,256.46,701.13,252.07,696.66z"/>
	<path class="st6" d="M277.08,715.11c-2.28-1.4-4.5-2.79-6.62-4.19c-0.93,2.02-1.84,4.05-2.71,6.11c2.16,1.44,4.39,2.86,6.67,4.27
		C275.27,719.22,276.15,717.16,277.08,715.11z"/>
	<path class="st6" d="M280.82,707.31c5.68-11.21,12.39-21.81,20-31.67c-2.33-1.26-4.65-2.46-6.95-3.6
		c-7.52,9.87-14.19,20.42-19.87,31.55C276.1,704.7,278.37,705.94,280.82,707.31z"/>
	<path class="st6" d="M237.51,669.54c1.79-3.1,0.89-7.57-1.68-12.64c-4.85,0.8-8.38,2.7-10.18,5.8s-1.67,7.11,0.07,11.71
		C231.41,674.09,235.72,672.64,237.51,669.54z"/>
	<path class="st6" d="M749.84,934.76c-9.56-5.52-40.07-15.33-57.59-14.35c1.74,4.6,1.86,8.61,0.07,11.71c-1.79,3.1-5.32,5-10.18,5.8
		c7.91,15.66,31.66,37.18,41.22,42.7c12.66,7.31,28.86,2.97,36.17-9.69C766.85,958.27,762.51,942.08,749.84,934.76z"/>
	<path class="st6" d="M680.47,925.28c1.79-3.1,6.11-4.55,11.79-4.87c-4.57-12.11-20.41-28.32-42.51-42.95
		c-0.84,2-1.72,3.99-2.62,5.95c7.19,4.75,13.33,9.42,17.55,13.73c1.01,1.03,0.02,2.74-1.36,2.32c-3.42-1.03-9.46-3.41-19.7-8.8
		c-5.7,11.25-12.4,21.92-19.97,31.88c23.73,11.84,45.71,17.46,58.49,15.36C679.58,932.85,678.68,928.38,680.47,925.28z"/>
	<path class="st6" d="M637.29,887.25c-5.71,11.31-12.46,21.99-20.13,31.94c2.18,1.18,4.34,2.3,6.49,3.37
		c7.58-9.96,14.27-20.63,19.97-31.88C641.67,889.65,639.56,888.51,637.29,887.25z"/>
	<path class="st6" d="M641,879.51c2.11,1.31,4.16,2.61,6.13,3.91c0.9-1.97,1.78-3.95,2.62-5.95c-2.01-1.33-4.07-2.64-6.17-3.94
		C642.74,875.53,641.89,877.53,641,879.51z"/>
	<path class="st6" d="M692.32,932.13c1.79-3.1,1.67-7.11-0.07-11.71c-5.68,0.32-10,1.77-11.79,4.87c-1.79,3.1-0.89,7.57,1.68,12.64
		C687,937.13,690.53,935.23,692.32,932.13z"/>
	<path class="st4" d="M253.43,694.33c-1.38-0.42-2.37,1.29-1.36,2.32c4.38,4.47,10.83,9.34,18.38,14.27
		c1.14-2.47,2.32-4.92,3.55-7.34C263.23,697.87,256.95,695.39,253.43,694.33z"/>
	<path class="st4" d="M274,703.59c-1.23,2.42-2.41,4.87-3.55,7.34c2.13,1.39,4.34,2.79,6.62,4.19c1.19-2.63,2.45-5.23,3.75-7.8
		C278.37,705.94,276.1,704.7,274,703.59z"/>
	<path class="st4" d="M663.32,899.48c1.38,0.42,2.37-1.29,1.36-2.32c-4.23-4.31-10.36-8.98-17.55-13.73
		c-1.12,2.45-2.29,4.87-3.5,7.26C653.86,896.07,659.9,898.45,663.32,899.48z"/>
	<path class="st4" d="M637.29,887.25c2.27,1.26,4.38,2.4,6.34,3.43c1.21-2.39,2.38-4.81,3.5-7.26c-1.97-1.3-4.02-2.6-6.13-3.91
		C639.82,882.12,638.57,884.7,637.29,887.25z"/>
	<path class="st6" d="M225.66,932.13c-1.79-3.1-1.67-7.11,0.07-11.71c-17.52-0.98-48.03,8.83-57.59,14.35
		c-12.66,7.31-17,23.5-9.69,36.17c7.31,12.66,23.5,17,36.17,9.69c9.56-5.52,33.31-27.04,41.22-42.7
		C230.98,937.13,227.45,935.23,225.66,932.13z"/>
	<path class="st6" d="M268.27,926.23c-1.4,0.36-2.39-1.35-1.33-2.34c2.68-2.52,7.98-6.73,18.36-13.22
		c-6.79-10.36-12.68-21.35-17.56-32.88c-21.85,14.54-37.48,30.6-42.02,42.62c5.68,0.32,10,1.77,11.79,4.87
		c1.79,3.1,0.89,7.57-1.68,12.64c12.7,2.09,34.48-3.45,58.04-15.14c-1.35-1.77-2.68-3.56-3.98-5.38
		C281.82,921.5,274.36,924.67,268.27,926.23z"/>
	<path class="st6" d="M296.8,913.79c-2.34,1.27-4.64,2.48-6.9,3.63c1.3,1.82,2.63,3.6,3.98,5.38c2.3-1.14,4.62-2.34,6.95-3.6
		C299.45,917.41,298.11,915.61,296.8,913.79z"/>
	<path class="st6" d="M291.9,906.65c-6.82-10.41-12.69-21.49-17.49-33.12c-2.28,1.4-4.5,2.83-6.67,4.27
		c4.87,11.53,10.77,22.52,17.56,32.88C287.3,909.42,289.5,908.07,291.9,906.65z"/>
	<path class="st6" d="M237.51,925.28c-1.79-3.1-6.11-4.55-11.79-4.87c-1.74,4.6-1.86,8.61-0.07,11.71c1.79,3.1,5.32,5,10.18,5.8
		C238.4,932.85,239.3,928.38,237.51,925.28z"/>
	<path class="st6" d="M692.32,662.7c1.79,3.1,1.67,7.11-0.07,11.71c17.52,0.98,48.03-8.83,57.59-14.35
		c12.66-7.31,17-23.5,9.69-36.17c-7.31-12.66-23.5-17-36.17-9.69c-9.56,5.52-33.31,27.04-41.22,42.7
		C687,657.7,690.53,659.6,692.32,662.7z"/>
	<path class="st6" d="M648.21,669.15c1.4-0.36,2.39,1.35,1.33,2.34c-2.61,2.45-7.68,6.49-17.49,12.67
		c6.85,10.45,12.79,21.55,17.68,33.2c22.1-14.63,37.94-30.84,42.51-42.95c-5.68-0.32-10-1.77-11.79-4.87
		c-1.79-3.1-0.89-7.57,1.68-12.64c-12.78-2.1-34.76,3.52-58.49,15.36c1.31,1.73,2.61,3.47,3.87,5.23
		C635.24,673.64,642.36,670.65,648.21,669.15z"/>
	<path class="st6" d="M625.92,687.94c6.88,10.48,12.81,21.64,17.65,33.36c2.11-1.3,4.17-2.61,6.17-3.94
		c-4.9-11.64-10.83-22.74-17.68-33.2C630.19,685.34,628.15,686.6,625.92,687.94z"/>
	<path class="st6" d="M621.05,680.86c2.19-1.18,4.35-2.3,6.47-3.36c-1.26-1.77-2.56-3.51-3.87-5.23c-2.15,1.07-4.32,2.2-6.49,3.37
		C618.48,677.36,619.78,679.1,621.05,680.86z"/>
	<path class="st6" d="M680.47,669.54c1.79,3.1,6.11,4.55,11.79,4.87c1.74-4.6,1.86-8.61,0.07-11.71s-5.32-5-10.18-5.8
		C679.58,661.98,678.68,666.44,680.47,669.54z"/>
	<path class="st4" d="M266.94,923.89c-1.05,0.99-0.07,2.7,1.33,2.34c6.09-1.56,13.55-4.73,21.62-8.82c-1.58-2.21-3.1-4.47-4.6-6.74
		C274.92,917.16,269.62,921.37,266.94,923.89z"/>
	<path class="st4" d="M285.3,910.67c1.49,2.28,3.02,4.53,4.6,6.74c2.26-1.14,4.56-2.35,6.9-3.63c-1.68-2.34-3.31-4.72-4.9-7.14
		C289.5,908.07,287.3,909.42,285.3,910.67z"/>
	<path class="st4" d="M649.54,671.49c1.05-0.99,0.07-2.7-1.33-2.34c-5.85,1.5-12.97,4.49-20.69,8.35c1.56,2.19,3.07,4.42,4.54,6.67
		C641.86,677.98,646.94,673.94,649.54,671.49z"/>
	<path class="st4" d="M632.06,684.16c-1.47-2.25-2.98-4.48-4.54-6.67c-2.11,1.06-4.28,2.18-6.47,3.36c1.67,2.32,3.29,4.68,4.87,7.08
		C628.15,686.6,630.19,685.34,632.06,684.16z"/>
	<path class="st4" d="M466.67,784.11c26.89-28.09,114.2-87.64,144.75-105.28c1.92-1.11,3.83-2.17,5.74-3.2
		c-31.43-40.77-78.26-69.04-131.79-76.11c0.06,2.17,0.1,4.37,0.1,6.59C485.47,641.39,477.55,746.78,466.67,784.11z"/>
	<path class="st4" d="M451.31,784.11c-10.88-37.33-18.8-142.72-18.8-177.99c0-2.22,0.04-4.41,0.1-6.59
		c-53.53,7.07-100.36,35.34-131.79,76.11c1.91,1.03,3.82,2.09,5.74,3.2C337.11,696.47,424.42,756.03,451.31,784.11z"/>
	<path class="st4" d="M474.35,797.41c37.77,9.25,133,55.08,163.54,72.72c1.93,1.11,3.82,2.25,5.68,3.39
		c9.68-23.46,15.04-49.16,15.04-76.11s-5.35-52.65-15.04-76.11c-1.86,1.14-3.75,2.28-5.68,3.39
		C607.35,742.33,512.12,788.17,474.35,797.41z"/>
	<path class="st4" d="M466.67,810.71c10.88,37.33,18.8,142.72,18.8,177.99c0,2.22-0.04,4.41-0.1,6.59
		c53.53-7.07,100.36-35.34,131.79-76.11c-1.91-1.03-3.82-2.09-5.74-3.2C580.87,898.36,493.56,838.8,466.67,810.71z"/>
	<path class="st4" d="M451.31,810.71c-26.89,28.09-114.2,87.64-144.75,105.28c-1.92,1.11-3.83,2.17-5.74,3.2
		c31.43,40.77,78.26,69.04,131.79,76.11c-0.06-2.17-0.1-4.37-0.1-6.59C432.51,953.44,440.43,848.05,451.31,810.71z"/>
	<path class="st4" d="M443.63,797.41c-37.77-9.25-133-55.08-163.54-72.72c-1.93-1.11-3.82-2.25-5.68-3.39
		c-9.68,23.46-15.04,49.16-15.04,76.11s5.35,52.65,15.04,76.11c1.86-1.14,3.75-2.28,5.68-3.39
		C310.63,852.5,405.86,806.66,443.63,797.41z"/>
	<path class="st4" d="M451.31,784.11c4.12,4.31,6.82,7.87,7.68,10.43c0.86-2.56,3.56-6.13,7.68-10.43
		c10.88-37.33,18.8-142.72,18.8-177.99c0-2.22-0.04-4.41-0.1-6.59c-8.63-1.14-17.43-1.74-26.38-1.74c-3.71,0-7.39,0.11-11.05,0.31
		c0.21,15.59-0.39,38.16-2.68,70.8c-0.12,1.7-2.61,1.76-2.77,0.06c-1.62-17.33-3.79-46.08-3.19-70.2c-2.24,0.22-4.47,0.48-6.69,0.77
		c-0.06,2.17-0.1,4.37-0.1,6.59C432.51,641.39,440.43,746.78,451.31,784.11z"/>
	<path class="st4" d="M466.67,810.71c-4.12-4.31-6.82-7.87-7.68-10.43c-0.86,2.56-3.56,6.13-7.68,10.43
		c-10.88,37.33-18.8,142.72-18.8,177.99c0,2.22,0.04,4.41,0.1,6.59c8.63,1.14,17.43,1.74,26.38,1.74c3.81,0,7.59-0.12,11.34-0.33
		c-0.27-15.63,0.29-38.62,2.65-72.35c0.12-1.7,2.61-1.76,2.77-0.06c1.65,17.7,3.89,47.33,3.14,71.75c2.17-0.21,4.32-0.47,6.47-0.75
		c0.06-2.17,0.1-4.37,0.1-6.59C485.47,953.44,477.55,848.05,466.67,810.71z"/>
	<path class="st4" d="M442.49,668.96c0.16,1.7,2.65,1.64,2.77-0.06c2.29-32.63,2.89-55.21,2.68-70.8c-2.89,0.16-5.77,0.38-8.63,0.66
		C438.7,622.88,440.87,651.63,442.49,668.96z"/>
	<path class="st4" d="M475.75,924.29c-0.16-1.7-2.65-1.64-2.77,0.06c-2.37,33.73-2.92,56.72-2.65,72.35
		c2.87-0.16,5.73-0.38,8.56-0.66C479.64,971.62,477.41,941.99,475.75,924.29z"/>
	<path class="st4" d="M443.63,797.41c5.79-1.42,10.23-1.97,12.87-1.44c-1.79-2.02-3.53-6.14-5.19-11.87
		c-26.89-28.09-114.2-87.64-144.75-105.28c-1.92-1.11-3.83-2.17-5.74-3.2c-7.61,9.87-14.32,20.47-20,31.67
		c13.61,7.61,32.86,19.42,60.01,37.73c1.41,0.95,0.22,3.14-1.33,2.43c-15.82-7.27-41.83-19.77-62.42-32.36
		c-0.93,2.04-1.81,4.11-2.67,6.19c1.86,1.14,3.75,2.28,5.68,3.39C310.63,742.33,405.86,788.17,443.63,797.41z"/>
	<path class="st4" d="M458.99,797.41c-0.42-0.73-0.39-1.7,0-2.87c-0.86-2.56-3.56-6.13-7.68-10.43c1.67,5.72,3.41,9.84,5.19,11.87
		C457.72,796.22,458.57,796.69,458.99,797.41z"/>
	<path class="st4" d="M577.25,846.33c16.17,7.42,42.96,20.31,63.75,33.18c0.89-1.98,1.74-3.98,2.57-5.99
		c-1.86-1.14-3.75-2.28-5.68-3.39c-30.54-17.63-125.78-63.47-163.54-72.72c-5.79,1.42-10.23,1.97-12.87,1.44
		c1.79,2.02,3.53,6.14,5.19,11.87c26.89,28.09,114.2,87.64,144.75,105.28c1.92,1.11,3.83,2.17,5.74,3.2
		c7.67-9.94,14.42-20.63,20.13-31.94c-13.68-7.58-33.3-19.55-61.37-38.49C574.51,847.81,575.7,845.62,577.25,846.33z"/>
	<path class="st4" d="M458.99,797.41c0.42,0.73,0.39,1.7,0,2.87c0.86,2.56,3.56,6.13,7.68,10.43c-1.67-5.72-3.41-9.84-5.19-11.87
		C460.26,798.6,459.41,798.14,458.99,797.41z"/>
	<path class="st4" d="M340.83,745.05c-27.14-18.32-46.4-30.12-60.01-37.73c-1.3,2.57-2.56,5.17-3.75,7.8
		c20.59,12.59,46.6,25.1,62.42,32.36C341.05,748.19,342.25,746,340.83,745.05z"/>
	<path class="st4" d="M577.25,846.33c-1.55-0.71-2.75,1.47-1.33,2.43c28.06,18.94,47.69,30.91,61.37,38.49
		c1.29-2.55,2.53-5.13,3.71-7.74C620.21,866.64,593.42,853.76,577.25,846.33z"/>
	<path class="st4" d="M451.31,810.71c1.67-5.72,3.41-9.84,5.19-11.87c-2.65,0.54-7.08-0.02-12.87-1.44
		c-37.77,9.25-133,55.08-163.54,72.72c-1.93,1.11-3.82,2.25-5.68,3.39c4.8,11.63,10.67,22.71,17.49,33.12
		c13.4-7.98,33.25-18.75,62.66-33.09c1.53-0.75,2.83,1.38,1.44,2.37c-14.2,10.07-38.01,26.33-59.2,37.86
		c1.31,1.83,2.66,3.62,4.03,5.4c1.91-1.03,3.82-2.09,5.74-3.2C337.11,898.36,424.42,838.8,451.31,810.71z"/>
	<path class="st4" d="M458.99,797.41c-0.42,0.73-1.27,1.19-2.49,1.44c-1.79,2.02-3.53,6.14-5.19,11.87
		c4.12-4.31,6.82-7.87,7.68-10.43C458.6,799.11,458.57,798.14,458.99,797.41z"/>
	<path class="st4" d="M458.99,797.41c-0.84,0-1.67-0.51-2.49-1.44c-2.65-0.54-7.08,0.02-12.87,1.44c5.79,1.42,10.23,1.97,12.87,1.44
		C457.32,797.92,458.15,797.41,458.99,797.41z"/>
	<path class="st4" d="M458.99,797.41c-0.42-0.73-1.27-1.19-2.49-1.44C457.32,796.9,458.15,797.41,458.99,797.41z"/>
	<path class="st4" d="M458.99,797.41c-0.84,0-1.67,0.51-2.49,1.44C457.72,798.6,458.57,798.14,458.99,797.41z"/>
	<path class="st4" d="M458.99,797.41c-0.42,0.73-0.39,1.7,0,2.87C459.38,799.11,459.41,798.14,458.99,797.41z"/>
	<path class="st4" d="M466.67,784.11c-1.67,5.72-3.41,9.84-5.19,11.87c2.65-0.54,7.08,0.02,12.87,1.44
		c37.77-9.25,133-55.08,163.54-72.72c1.93-1.11,3.82-2.25,5.68-3.39c-4.84-11.73-10.76-22.89-17.65-33.36
		c-13.4,8.05-33.59,19.06-64,33.89c-1.53,0.75-2.83-1.38-1.44-2.37c14.5-10.28,39.04-27.03,60.57-38.6c-1.27-1.76-2.57-3.5-3.9-5.22
		c-1.91,1.03-3.82,2.09-5.74,3.2C580.87,696.47,493.56,756.03,466.67,784.11z"/>
	<path class="st4" d="M458.99,797.41c0.42-0.73,1.27-1.19,2.49-1.44c1.79-2.02,3.53-6.14,5.19-11.87
		c-4.12,4.31-6.82,7.87-7.68,10.43C459.38,795.71,459.41,796.69,458.99,797.41z"/>
	<path class="st4" d="M458.99,797.41c0.42-0.73,0.39-1.7,0-2.87C458.6,795.71,458.57,796.69,458.99,797.41z"/>
	<path class="st4" d="M461.48,795.98c-0.82,0.93-1.65,1.44-2.49,1.44c0.84,0,1.67,0.51,2.49,1.44c2.65,0.54,7.08-0.02,12.87-1.44
		C468.56,796,464.12,795.44,461.48,795.98z"/>
	<path class="st4" d="M458.99,797.41c0.84,0,1.67-0.51,2.49-1.44C460.26,796.22,459.41,796.69,458.99,797.41z"/>
	<path class="st4" d="M458.99,797.41c0.42,0.73,1.27,1.19,2.49,1.44C460.66,797.92,459.83,797.41,458.99,797.41z"/>
	<path class="st4" d="M354.56,873.56c-29.41,14.34-49.26,25.11-62.66,33.09c1.58,2.42,3.21,4.8,4.9,7.14
		c21.19-11.53,45.01-27.79,59.2-37.86C357.39,874.94,356.09,872.81,354.56,873.56z"/>
	<path class="st4" d="M561.92,721.82c30.41-14.82,50.6-25.83,64-33.89c-1.57-2.4-3.2-4.76-4.87-7.08
		c-21.53,11.57-46.06,28.31-60.57,38.6C559.1,720.44,560.39,722.57,561.92,721.82z"/>
</g>
<g>
	<path class="st3" d="M503.03,869.97c0-33.13,26.86-59.98,59.99-59.98c11.12,0,21.52,3.04,30.45,8.31
		c1.05-6.81,1.59-13.78,1.59-20.88c0-75.15-60.92-136.07-136.07-136.07c-75.15,0-136.07,60.92-136.07,136.07
		c0,75.15,60.92,136.07,136.07,136.07c23.97,0,46.48-6.2,66.04-17.09C511.6,905.39,503.03,888.68,503.03,869.97z M424.25,788.43
		c-18.21,0-32.98-14.77-32.98-32.98c0-18.21,14.77-32.98,32.98-32.98c18.21,0,32.98,14.76,32.98,32.98
		C457.23,773.67,442.47,788.43,424.25,788.43z"/>
	<linearGradient id="SVGID_1_" gradientUnits="userSpaceOnUse" x1="357.8925" y1="937.0411" x2="440.9129" y2="813.325">
		<stop  offset="0" style="stop-color:#FFFFFF;stop-opacity:0.5"/>
		<stop  offset="1" style="stop-color:#FFFFFF;stop-opacity:0"/>
	</linearGradient>
	<path class="st7" d="M458.99,686.34c-61.35,0-111.08,49.73-111.08,111.08c0,61.35,49.73,111.08,111.08,111.08
		c18.07,0,35.14-4.32,50.23-11.98c-3.96-8-6.19-17.01-6.19-26.54c0-33.13,26.86-59.98,59.99-59.98c2.13,0,4.23,0.11,6.31,0.33
		c0.49-4.23,0.75-8.54,0.75-12.9C570.07,736.07,520.34,686.34,458.99,686.34z M424.25,788.43c-18.21,0-32.98-14.77-32.98-32.98
		c0-18.21,14.77-32.98,32.98-32.98c18.21,0,32.98,14.76,32.98,32.98C457.23,773.67,442.47,788.43,424.25,788.43z"/>
</g>
</svg>
